<svg width="233" height="47" viewBox="0 0 233 47" fill="none" xmlns="http://www.w3.org/2000/svg">
<path d="M40.5403 15.249H39.2294V34.8782H40.5403V15.249Z" fill="white"/>
<path d="M35.4304 25.4276L34.7707 26.5654L49.9512 35.4431L50.6108 34.3053L35.4304 25.4276Z" fill="white"/>
<path d="M44.3381 25.4292L29.1595 34.3086L29.8192 35.4463L44.9979 26.5669L44.3381 25.4292Z" fill="white"/>
<path d="M27.3428 3.94319L39.8285 0.537109L52.9089 4.09241L39.891 7.64749L27.3428 3.94319Z" fill="#292828"/>
<path d="M40.314 7.85412L54.2003 4.30957V11.2514L40.314 14.796V7.85412Z" fill="#292828"/>
<path d="M25.7726 11.2514V4.30957L39.6587 7.85412V14.796L25.7726 11.2514Z" fill="#292828"/>
<path d="M39.8894 0L25.0079 3.82345V11.8974L39.9865 15.7208L54.965 11.8974V3.82345L39.8894 0ZM39.8925 1.13251L51.6185 4.10652L39.891 7.08097L28.435 4.10674L39.8925 1.13251ZM39.4402 14.4591L26.1003 11.0442V5.23442V4.68166L39.4402 8.09652V14.4591ZM53.8726 11.0442L40.5327 14.4591V8.09652L53.8728 4.68166V11.0442H53.8726Z" fill="white"/>
<path d="M51.851 34.5115L64.3365 31.1055L77.4171 34.6605L64.3992 38.2156L51.851 34.5115Z" fill="#292828"/>
<path d="M64.8222 38.4225L78.7085 34.8779V41.8198L64.8222 45.3645V38.4225Z" fill="#292828"/>
<path d="M50.2807 41.8198V34.8779L64.1669 38.4225V45.3645L50.2807 41.8198Z" fill="#292828"/>
<path d="M64.3976 30.5684L49.5161 34.3918V42.4657L64.4947 46.2892L79.4732 42.4657V34.3918L64.3976 30.5684ZM64.4007 31.7009L76.1267 34.6749L64.3992 37.6493L52.9432 34.6751L64.4007 31.7009ZM63.9484 45.0274L50.6085 41.6126V35.8028V35.25L63.9484 38.6649V45.0274ZM78.3808 41.6126L65.0406 45.0274V38.6649L78.3808 35.25V41.6126Z" fill="white"/>
<path d="M2.94865 34.5115L15.4341 31.1055L28.5147 34.6605L15.4968 38.2156L2.94865 34.5115Z" fill="#292828"/>
<path d="M15.9198 38.4225L29.8062 34.8779V41.8198L15.9198 45.3645V38.4225Z" fill="#292828"/>
<path d="M1.37841 41.8198V34.8779L15.2646 38.4225V45.3645L1.37841 41.8198Z" fill="#292828"/>
<path d="M15.4951 30.5684L0.613503 34.3918V42.4657L15.5921 46.2892L30.5707 42.4657V34.3918L15.4951 30.5684ZM15.4984 31.7009L27.2244 34.6749L15.4968 37.6493L4.04086 34.6751L15.4984 31.7009ZM15.0461 45.0274L1.70614 41.6126V35.8028V35.25L15.0461 38.6649V45.0274ZM29.4785 41.6126L16.1383 45.0274V38.6649L29.4785 35.25V41.6126Z" fill="white"/>
<path d="M47.4844 27.4334C49.432 27.4334 51.0109 25.8477 51.0109 23.8915C51.0109 21.9354 49.432 20.3496 47.4844 20.3496C45.5367 20.3496 43.9578 21.9354 43.9578 23.8915C43.9578 25.8477 45.5367 27.4334 47.4844 27.4334Z" fill="#292828"/>
<path d="M47.4844 28.2021C45.1182 28.2021 43.1932 26.2687 43.1932 23.892C43.1932 21.5155 45.1182 19.582 47.4844 19.582C49.8506 19.582 51.7759 21.5155 51.7759 23.892C51.7756 26.2687 49.8506 28.2021 47.4844 28.2021ZM47.4844 21.1181C45.9616 21.1181 44.7225 22.3625 44.7225 23.892C44.7225 25.4217 45.9616 26.6661 47.4844 26.6661C49.0075 26.6661 50.2465 25.4217 50.2465 23.892C50.2463 22.3625 49.0072 21.1181 47.4844 21.1181Z" fill="white"/>
<path d="M32.2665 27.4334C34.2142 27.4334 35.7931 25.8477 35.7931 23.8915C35.7931 21.9354 34.2142 20.3496 32.2665 20.3496C30.3189 20.3496 28.74 21.9354 28.74 23.8915C28.74 25.8477 30.3189 27.4334 32.2665 27.4334Z" fill="#292828"/>
<path d="M32.2666 28.2021C29.9004 28.2021 27.9753 26.2687 27.9753 23.892C27.9753 21.5155 29.9004 19.582 32.2666 19.582C34.6329 19.582 36.558 21.5155 36.558 23.892C36.5578 26.2687 34.6327 28.2021 32.2666 28.2021ZM32.2666 21.1181C30.7437 21.1181 29.5047 22.3625 29.5047 23.892C29.5047 25.4217 30.7437 26.6661 32.2666 26.6661C33.7896 26.6661 35.0286 25.4217 35.0286 23.892C35.0284 22.3625 33.7896 21.1181 32.2666 21.1181Z" fill="white"/>
<path d="M39.9865 41.4305C41.9341 41.4305 43.513 39.8447 43.513 37.8886C43.513 35.9324 41.9341 34.3467 39.9865 34.3467C38.0388 34.3467 36.4599 35.9324 36.4599 37.8886C36.4599 39.8447 38.0388 41.4305 39.9865 41.4305Z" fill="#292828"/>
<path d="M39.9865 42.1982C37.6201 42.1982 35.695 40.2648 35.695 37.8881C35.695 35.5116 37.6201 33.5781 39.9865 33.5781C42.3526 33.5781 44.2777 35.5116 44.2777 37.8881C44.2777 40.2648 42.3526 42.1982 39.9865 42.1982ZM39.9865 35.1144C38.4634 35.1144 37.2244 36.3588 37.2244 37.8883C37.2244 39.418 38.4634 40.6624 39.9865 40.6624C41.5093 40.6624 42.7483 39.418 42.7483 37.8883C42.7483 36.3588 41.5093 35.1144 39.9865 35.1144Z" fill="white"/>
<path d="M108.05 7.30664C108.534 7.30664 108.748 7.54944 108.748 8.0082V11.0297C108.748 11.5153 108.534 11.7581 108.05 11.7581H94.9143C94.1891 11.7581 93.8665 12.1629 93.8665 12.8913V13.5928C93.8665 14.3484 94.1891 14.726 94.8873 14.726H104.558C107.727 14.726 109.447 16.4795 109.447 19.5282V21.6866C109.447 24.3845 107.835 26.192 104.477 26.192H89.7028C89.2464 26.192 89.0043 25.9492 89.0043 25.4905V22.4689C89.0043 21.9834 89.2461 21.7674 89.7028 21.7674H103.51C104.262 21.7674 104.585 21.3358 104.585 20.6074V19.7442C104.585 18.9887 104.262 18.6111 103.537 18.6111H93.8936C90.6968 18.6111 88.9776 16.8575 88.9776 13.8088V11.8393C88.9776 9.11453 90.6164 7.30664 93.9473 7.30664H108.05Z" fill="white"/>
<path d="M123.576 7.30664C124.033 7.30664 124.275 7.54944 124.275 8.0082V14.618H135.503V8.0082C135.503 7.54944 135.745 7.30664 136.201 7.30664H139.694C140.15 7.30664 140.392 7.54944 140.392 8.0082V25.4908C140.392 25.9496 140.15 26.1924 139.694 26.1924H136.201C135.745 26.1924 135.503 25.9496 135.503 25.4908V18.7459H124.275V25.4908C124.275 25.9496 124.033 26.1924 123.576 26.1924H120.084C119.627 26.1924 119.385 25.9496 119.385 25.4908V8.0082C119.385 7.54944 119.627 7.30664 120.084 7.30664H123.576Z" fill="white"/>
<path d="M171.518 7.30664C172.002 7.30664 172.217 7.54944 172.217 8.0082V11.0297C172.217 11.5153 172.002 11.7581 171.518 11.7581H159.753C157.443 11.7581 156.825 12.3517 156.825 14.726H171.357C171.841 14.726 172.056 14.942 172.056 15.4275V17.9095C172.056 18.3951 171.841 18.6111 171.357 18.6111H156.825C156.825 21.147 157.416 21.7677 159.753 21.7677H171.518C172.002 21.7677 172.217 21.9837 172.217 22.4693V25.4908C172.217 25.9496 172.002 26.1924 171.518 26.1924H159.672C154.166 26.1924 152.071 24.25 152.071 19.0698V14.4295C152.071 9.24969 154.166 7.30698 159.672 7.30698H171.518V7.30664Z" fill="white"/>
<path d="M186.327 7.30664C186.784 7.30664 187.026 7.54944 187.026 8.0082V18.5842C187.026 21.0122 187.59 21.6329 189.927 21.6329H200.779C201.262 21.6329 201.504 21.8757 201.504 22.3345V25.4912C201.504 25.9499 201.262 26.1927 200.779 26.1927H189.739C184.232 26.1927 182.137 24.2504 182.137 19.0702V8.00888C182.137 7.55012 182.379 7.30732 182.835 7.30732H186.327V7.30664Z" fill="white"/>
<path d="M231.487 7.30664C231.971 7.30664 232.186 7.54944 232.186 8.0082V11.0297C232.186 11.5153 231.971 11.7581 231.487 11.7581H219.829C217.492 11.7581 216.928 12.3517 216.928 14.9956H231.326C231.81 14.9956 232.025 15.2384 232.025 15.6972V18.2063C232.025 18.665 231.81 18.9078 231.326 18.9078H216.928V25.4908C216.928 25.9496 216.686 26.1924 216.23 26.1924H212.737C212.281 26.1924 212.039 25.9496 212.039 25.4908V14.4292C212.039 9.24934 214.134 7.30664 219.641 7.30664H231.487Z" fill="white"/>
<path d="M108.562 31.6016C108.85 31.6016 109.002 31.7547 109.002 32.044V34.0356C109.002 34.3249 108.85 34.4781 108.562 34.4781H103.46V43.0744C103.46 43.3637 103.308 43.5172 103.02 43.5172H100.833C100.528 43.5172 100.375 43.3641 100.375 43.0744V34.4781H95.291C94.9861 34.4781 94.8505 34.3249 94.8505 34.0356V32.044C94.8505 31.7547 94.9861 31.6016 95.291 31.6016H108.562Z" fill="white"/>
<path d="M120.463 31.6016C120.751 31.6016 120.903 31.7547 120.903 32.044V36.2147H127.988V32.044C127.988 31.7547 128.141 31.6016 128.429 31.6016H130.632C130.92 31.6016 131.073 31.7547 131.073 32.044V43.0747C131.073 43.364 130.92 43.5175 130.632 43.5175H128.429C128.141 43.5175 127.988 43.3644 127.988 43.0747V38.8192H120.903V43.0747C120.903 43.364 120.751 43.5175 120.463 43.5175H118.26C117.971 43.5175 117.819 43.3644 117.819 43.0747V32.044C117.819 31.7547 117.971 31.6016 118.26 31.6016H120.463Z" fill="white"/>
<path d="M151.63 31.6016C151.935 31.6016 152.07 31.7547 152.07 32.044V33.9504C152.07 34.257 151.935 34.4102 151.63 34.4102H144.206C142.749 34.4102 142.359 34.7847 142.359 36.2826H151.528C151.833 36.2826 151.969 36.4188 151.969 36.7251V38.2912C151.969 38.5975 151.833 38.734 151.528 38.734H142.359C142.359 40.334 142.732 40.7256 144.206 40.7256H151.63C151.935 40.7256 152.071 40.8617 152.071 41.168V43.0747C152.071 43.364 151.935 43.5175 151.63 43.5175H144.155C140.681 43.5175 139.359 42.292 139.359 39.0236V36.0958C139.359 32.8274 140.681 31.6019 144.155 31.6019H151.63V31.6016Z" fill="white"/>
<path d="M170.687 31.6016C174.161 31.6016 175.483 32.8271 175.483 36.0955V39.0233C175.483 42.2917 174.161 43.5172 170.687 43.5172H165.399C161.925 43.5172 160.603 42.2917 160.603 39.0233V36.0955C160.603 32.8271 161.925 31.6016 165.399 31.6016H170.687ZM163.687 38.7849C163.687 40.334 164.043 40.7256 165.518 40.7256H170.568C172.043 40.7256 172.399 40.334 172.399 38.7849V36.3335C172.399 34.7844 172.043 34.4098 170.568 34.4098H165.518C164.043 34.4098 163.687 34.7844 163.687 36.3335V38.7849Z" fill="white"/>
<path d="M193.088 31.6016C195.749 31.6016 196.8 32.8271 196.8 35.1253V36.1637C196.8 38.0361 196.105 39.1768 194.41 39.5513L197.139 43.0238C197.257 43.1769 197.241 43.5175 196.884 43.5175H194.274C193.952 43.5175 193.851 43.4323 193.732 43.2792L191.241 39.8746H186.495V43.0747C186.495 43.364 186.343 43.5175 186.054 43.5175H183.851C183.563 43.5175 183.411 43.3644 183.411 43.0747V32.1123C183.411 31.7717 183.58 31.6016 183.919 31.6016H193.088ZM186.495 37.4402H192.478C193.411 37.4402 193.715 37.0656 193.715 36.2656V35.5338C193.715 34.7338 193.411 34.3592 192.478 34.3592H186.699C186.563 34.3592 186.496 34.4275 186.496 34.5806V37.4402H186.495Z" fill="white"/>
<path d="M206.324 31.6016C206.544 31.6016 206.663 31.6698 206.781 31.8399L210.866 37.5937L214.951 31.8399C215.087 31.6698 215.205 31.6016 215.425 31.6016H218.07C218.29 31.6016 218.375 31.806 218.239 31.9931L212.341 39.9425V43.0747C212.341 43.364 212.205 43.5175 211.9 43.5175H209.714C209.409 43.5175 209.273 43.3644 209.273 43.0747V39.9425L203.426 31.9931C203.29 31.8056 203.375 31.6016 203.595 31.6016H206.324Z" fill="white"/>
</svg>
