<svg width="166" height="33" viewBox="0 0 166 33" fill="none" xmlns="http://www.w3.org/2000/svg">
<path d="M22.0809 0C22.6411 0 22.8896 0.21623 22.8896 0.624794V3.31569C22.8896 3.74814 22.6411 3.96437 22.0809 3.96437H6.87323C6.0336 3.96437 5.66017 4.32485 5.66017 4.97353V5.59832C5.66017 6.27119 6.0336 6.60748 6.84191 6.60748H18.0378C21.7075 6.60748 23.6979 8.16916 23.6979 10.8842V12.8064C23.6979 15.2091 21.832 16.8188 17.9442 16.8188H0.839631C0.311192 16.8188 0.0309235 16.6026 0.0309235 16.1941V13.5032C0.0309235 13.0707 0.3108 12.8784 0.839631 12.8784H16.8251C17.6957 12.8784 18.0691 12.494 18.0691 11.8453V11.0766C18.0691 10.4037 17.6957 10.0674 16.856 10.0674H5.69148C1.99045 10.0674 0 8.50575 0 5.79066V4.03665C0 1.61006 1.89729 0 5.75372 0H22.0809Z" fill="#F3651C"/>
<path d="M40.0565 0C40.5853 0 40.8652 0.216239 40.8652 0.624819V6.51157H53.8648V0.624819C53.8648 0.216239 54.1447 0 54.6735 0H58.7166C59.2451 0 59.5253 0.216239 59.5253 0.624819V16.195C59.5253 16.6036 59.2455 16.8198 58.7166 16.8198H54.6735C54.145 16.8198 53.8648 16.6036 53.8648 16.195V10.1879H40.8652V16.195C40.8652 16.6036 40.5853 16.8198 40.0565 16.8198H36.0133C35.4849 16.8198 35.2046 16.6036 35.2046 16.195V0.624819C35.2046 0.216239 35.4845 0 36.0133 0H40.0565Z" fill="#F3651C"/>
<path d="M95.5617 0C96.1219 0 96.3704 0.216239 96.3704 0.624819V3.31582C96.3704 3.74829 96.1215 3.96453 95.5617 3.96453H81.9401C79.2655 3.96453 78.5503 4.49317 78.5503 6.60774H95.375C95.9348 6.60774 96.1837 6.80009 96.1837 7.23256V9.44301C96.1837 9.87548 95.9348 10.0678 95.375 10.0678H78.5503C78.5503 12.3264 79.2341 12.8792 81.9401 12.8792H95.5617C96.1219 12.8792 96.3704 13.0715 96.3704 13.504V16.195C96.3704 16.6036 96.1215 16.8198 95.5617 16.8198H81.847C75.4717 16.8198 73.0459 15.0899 73.0459 10.4764V6.34373C73.0459 1.7305 75.4717 0.000304569 81.847 0.000304569H95.5617V0Z" fill="#F3651C"/>
<path d="M112.707 0C113.235 0 113.515 0.216235 113.515 0.624807V10.0437C113.515 12.2061 114.168 12.7589 116.874 12.7589H129.438C129.998 12.7589 130.278 12.9751 130.278 13.3837V16.195C130.278 16.6036 129.998 16.8198 129.438 16.8198H116.656C110.281 16.8198 107.855 15.09 107.855 10.4765V0.625412C107.855 0.216839 108.135 0.000604512 108.664 0.000604512H112.707V0Z" fill="#F3651C"/>
<path d="M164.99 0C165.55 0 165.799 0.216239 165.799 0.624819V3.31582C165.799 3.74829 165.55 3.96453 164.99 3.96453H151.493C148.788 3.96453 148.135 4.49317 148.135 6.84787H164.804C165.364 6.84787 165.613 7.06411 165.613 7.47269V9.70732C165.613 10.1159 165.364 10.3321 164.804 10.3321H148.135V16.195C148.135 16.6036 147.855 16.8198 147.326 16.8198H143.283C142.754 16.8198 142.474 16.6036 142.474 16.195V6.34342C142.474 1.73019 144.9 0 151.275 0H164.99Z" fill="#F3651C"/>
<path d="M22.6736 21.6372C23.0071 21.6372 23.1836 21.7736 23.1836 22.0312V23.8048C23.1836 24.0625 23.0071 24.1989 22.6736 24.1989H16.7672V31.8542C16.7672 32.1119 16.5906 32.2485 16.2571 32.2485H13.7257C13.3726 32.2485 13.1957 32.1122 13.1957 31.8542V24.1989H7.3093C6.95622 24.1989 6.79926 24.0625 6.79926 23.8048V22.0312C6.79926 21.7736 6.95622 21.6372 7.3093 21.6372H22.6736Z" fill="#005387"/>
<path d="M36.4521 21.6372C36.7856 21.6372 36.9622 21.7736 36.9622 22.0312V25.7452H45.1643V22.0312C45.1643 21.7736 45.3409 21.6372 45.6744 21.6372H48.2254C48.5593 21.6372 48.7358 21.7736 48.7358 22.0312V31.8542C48.7358 32.1118 48.5593 32.2485 48.2254 32.2485H45.6744C45.3409 32.2485 45.1643 32.1122 45.1643 31.8542V28.0646H36.9622V31.8542C36.9622 32.1118 36.7856 32.2485 36.4521 32.2485H33.9011C33.5676 32.2485 33.3911 32.1122 33.3911 31.8542V22.0312C33.3911 21.7736 33.5676 21.6372 33.9011 21.6372H36.4521Z" fill="#005387"/>
<path d="M72.5355 21.6372C72.8886 21.6372 73.0456 21.7736 73.0456 22.0312V23.7289C73.0456 24.0019 72.8886 24.1383 72.5355 24.1383H63.9412C62.2537 24.1383 61.8023 24.4719 61.8023 25.8057H72.4181C72.7712 25.8057 72.9282 25.927 72.9282 26.1997V27.5944C72.9282 27.8671 72.7712 27.9887 72.4181 27.9887H61.8023C61.8023 29.4136 62.2341 29.7622 63.9412 29.7622H72.5359C72.889 29.7622 73.046 29.8835 73.046 30.1563V31.8542C73.046 32.1118 72.889 32.2485 72.5359 32.2485H63.882C59.8596 32.2485 58.3291 31.1572 58.3291 28.2466V25.6394C58.3291 22.7288 59.8596 21.6375 63.882 21.6375H72.5355V21.6372Z" fill="#005387"/>
<path d="M94.5988 21.6372C98.6216 21.6372 100.152 22.7286 100.152 25.6392V28.2465C100.152 31.1572 98.6216 32.2485 94.5988 32.2485H88.4767C84.4543 32.2485 82.9238 31.1572 82.9238 28.2465V25.6392C82.9238 22.7286 84.4543 21.6372 88.4767 21.6372H94.5988ZM86.4949 28.0342C86.4949 29.4138 86.9067 29.7625 88.6141 29.7625H94.4614C96.1685 29.7625 96.5806 29.4138 96.5806 28.0342V25.8512C96.5806 24.4716 96.1685 24.1381 94.4614 24.1381H88.6141C86.9071 24.1381 86.4949 24.4716 86.4949 25.8512V28.0342Z" fill="#005387"/>
<path d="M120.534 21.6372C123.615 21.6372 124.831 22.7286 124.831 24.7752V25.6999C124.831 27.3673 124.027 28.383 122.064 28.7166L125.224 31.8089C125.361 31.9452 125.341 32.2485 124.929 32.2485H121.907C121.535 32.2485 121.417 32.1726 121.28 32.0363L118.395 29.0044H112.901V31.8542C112.901 32.1118 112.724 32.2485 112.391 32.2485H109.84C109.506 32.2485 109.33 32.1122 109.33 31.8542V22.092C109.33 21.7887 109.526 21.6372 109.918 21.6372H120.534ZM112.901 26.8366H119.828C120.907 26.8366 121.26 26.503 121.26 25.7906V25.1389C121.26 24.4265 120.907 24.093 119.828 24.093H113.137C112.98 24.093 112.902 24.1537 112.902 24.2901V26.8366H112.901Z" fill="#005387"/>
<path d="M135.858 21.6372C136.113 21.6372 136.25 21.698 136.387 21.8495L141.116 26.9733L145.846 21.8495C146.003 21.698 146.14 21.6372 146.395 21.6372H149.456C149.711 21.6372 149.809 21.8192 149.652 21.9859L142.824 29.0649V31.8542C142.824 32.1118 142.667 32.2485 142.314 32.2485H139.782C139.429 32.2485 139.272 32.1122 139.272 31.8542V29.0649L132.502 21.9859C132.345 21.8189 132.443 21.6372 132.698 21.6372H135.858Z" fill="#005387"/>
</svg>
