<svg width="272" height="55" viewBox="0 0 272 55" fill="none" xmlns="http://www.w3.org/2000/svg">
<g clip-path="url(#clip0_109_29)">
<path d="M47.3198 18.474H45.7662V41.5721H47.3198V18.474Z" fill="#F3651C"/>
<path d="M41.265 30.4514L40.4832 31.7903L58.475 42.2371L59.2568 40.8982L41.265 30.4514Z" fill="#F3651C"/>
<path d="M51.8199 30.4527L33.8309 40.9012L34.6129 42.2399L52.6019 31.7914L51.8199 30.4527Z" fill="#F3651C"/>
<path d="M31.6783 5.17024L46.4759 1.16223L61.9784 5.34557L46.55 9.52891L31.6783 5.17024Z" fill="white"/>
<path d="M47.0516 9.77266L63.509 5.60172V13.7703L47.0516 17.9413V9.77266Z" fill="white"/>
<path d="M29.8174 13.7703V5.60172L46.2747 9.77266V17.9413L29.8174 13.7703Z" fill="white"/>
<path d="M46.5482 0.53064L28.9111 5.02977V14.5305L46.6632 19.0297L64.4153 14.5305V5.02977L46.5482 0.53064ZM46.5518 1.86303L60.4491 5.36261L46.55 8.86271L32.9728 5.36287L46.5518 1.86303ZM46.0158 17.5449L30.2058 13.5266V6.69009V6.03965L46.0158 10.058V17.5449ZM63.1206 13.5266L47.3103 17.5449V10.058L63.1206 6.03965V13.5266Z" fill="#005387"/>
<path d="M60.7246 41.1406L75.5222 37.1328L91.0246 41.3162L75.5962 45.4995L60.7246 41.1406Z" fill="white"/>
<path d="M76.0978 45.743L92.5552 41.5721V49.7407L76.0978 53.9119V45.743Z" fill="white"/>
<path d="M58.8636 49.7407V41.5721L75.321 45.743V53.9119L58.8636 49.7407Z" fill="white"/>
<path d="M75.5944 36.501L57.9573 41.0001V50.5009L75.7094 55L93.4615 50.5009V41.0001L75.5944 36.501ZM75.5981 37.8336L89.4953 41.3332L75.5962 44.8333L62.019 41.3335L75.5981 37.8336ZM75.062 53.5153L59.252 49.4969V42.6604V42.01L75.062 46.0283V53.5153ZM92.1668 49.4969L76.3565 53.5153V46.0283L92.1668 42.01V49.4969Z" fill="#005387"/>
<path d="M2.76727 41.1406L17.5649 37.1328L33.0673 41.3162L17.6389 45.4995L2.76727 41.1406Z" fill="white"/>
<path d="M18.1402 45.743L34.5979 41.5721V49.7407L18.1402 53.9119V45.743Z" fill="white"/>
<path d="M0.906281 49.7407V41.5721L17.3637 45.743V53.9119L0.906281 49.7407Z" fill="white"/>
<path d="M17.6371 36.501L0 41.0001V50.5009L17.7521 55L35.5042 50.5009V41.0001L17.6371 36.501ZM17.6407 37.8336L31.538 41.3332L17.6389 44.8331L4.06172 41.3332L17.6407 37.8336ZM17.1047 53.5153L1.2947 49.4969V42.6604V42.01L17.1047 46.0283V53.5153ZM34.2095 49.4969L18.3992 53.5153V46.0283L34.2095 42.01V49.4969Z" fill="#005387"/>
<path d="M55.5494 32.8131C57.8577 32.8131 59.729 30.9471 59.729 28.6453C59.729 26.3435 57.8577 24.4774 55.5494 24.4774C53.2411 24.4774 51.3699 26.3435 51.3699 28.6453C51.3699 30.9471 53.2411 32.8131 55.5494 32.8131Z" fill="white"/>
<path d="M55.5494 33.7172C52.7451 33.7172 50.4636 31.442 50.4636 28.6453C50.4636 25.8488 52.7451 23.5737 55.5494 23.5737C58.3538 23.5737 60.6355 25.8488 60.6355 28.6453C60.6353 31.442 58.3538 33.7172 55.5494 33.7172ZM55.5494 25.3812C53.7446 25.3812 52.2762 26.8455 52.2762 28.6453C52.2762 30.4453 53.7446 31.9096 55.5494 31.9096C57.3545 31.9096 58.823 30.4453 58.823 28.6453C58.8227 26.8455 57.3545 25.3812 55.5494 25.3812Z" fill="#005387"/>
<path d="M37.5138 32.8131C39.8221 32.8131 41.6933 30.9471 41.6933 28.6453C41.6933 26.3435 39.8221 24.4774 37.5138 24.4774C35.2055 24.4774 33.3343 26.3435 33.3343 28.6453C33.3343 30.9471 35.2055 32.8131 37.5138 32.8131Z" fill="white"/>
<path d="M37.5138 33.7172C34.7095 33.7172 32.428 31.442 32.428 28.6453C32.428 25.8488 34.7095 23.5737 37.5138 23.5737C40.3184 23.5737 42.5999 25.8488 42.5999 28.6453C42.5999 31.442 40.3184 33.7172 37.5138 33.7172ZM37.5138 25.3812C35.709 25.3812 34.2406 26.8455 34.2406 28.6453C34.2406 30.4453 35.709 31.9096 37.5138 31.9096C39.3189 31.9096 40.7873 30.4453 40.7873 28.6453C40.7873 26.8455 39.3189 25.3812 37.5138 25.3812Z" fill="#005387"/>
<path d="M46.6632 49.2829C48.9715 49.2829 50.8427 47.4169 50.8427 45.115C50.8427 42.8132 48.9715 40.9472 46.6632 40.9472C44.3549 40.9472 42.4836 42.8132 42.4836 45.115C42.4836 47.4169 44.3549 49.2829 46.6632 49.2829Z" fill="white"/>
<path d="M46.6632 50.1866C43.8586 50.1866 41.5771 47.9115 41.5771 45.1147C41.5771 42.3183 43.8586 40.0432 46.6632 40.0432C49.4675 40.0432 51.749 42.3183 51.749 45.1147C51.749 47.9115 49.4677 50.1866 46.6632 50.1866ZM46.6632 41.8509C44.8581 41.8509 43.3897 43.3152 43.3897 45.115C43.3897 46.915 44.8581 48.3794 46.6632 48.3794C48.468 48.3794 49.9364 46.915 49.9364 45.115C49.9364 43.3152 48.468 41.8509 46.6632 41.8509Z" fill="#005387"/>
<path d="M131.978 0C132.675 0 132.984 0.347299 132.984 1.00316V5.32439C132.984 6.01873 132.675 6.36603 131.978 6.36603H113.059C112.015 6.36603 111.55 6.94469 111.55 7.98658V8.98949C111.55 10.0699 112.015 10.61 113.02 10.61H126.949C131.514 10.61 133.99 13.1178 133.99 17.4773V20.5637C133.99 24.4217 131.668 27.0067 126.833 27.0067H105.553C104.896 27.0067 104.548 26.6594 104.548 26.0038V21.6826C104.548 20.988 104.896 20.6794 105.553 20.6794H125.44C126.523 20.6794 126.988 20.062 126.988 19.0204V17.7858C126.988 16.7055 126.523 16.1655 125.479 16.1655H111.589C106.985 16.1655 104.509 13.6578 104.509 9.29805V6.48171C104.509 2.58499 106.869 0 111.666 0H131.978Z" fill="#F3651C"/>
<path d="M145.614 0C146.272 0 146.62 0.347299 146.62 1.00316V10.4554H162.792V1.00316C162.792 0.347041 163.14 0 163.798 0H168.828C169.485 0 169.833 0.347299 169.833 1.00316V26.0038C169.833 26.6596 169.485 27.0067 168.828 27.0067H163.798C163.14 27.0067 162.792 26.6594 162.792 26.0038V16.3584H146.62V26.0038C146.62 26.6596 146.272 27.0067 145.614 27.0067H140.584C139.927 27.0067 139.578 26.6594 139.578 26.0038V1.00316C139.578 0.347041 139.927 0 140.584 0H145.614Z" fill="#F3651C"/>
<path d="M203.78 0C204.477 0 204.787 0.347299 204.787 1.00316V5.32439C204.787 6.01873 204.477 6.36603 203.78 6.36603H186.835C183.508 6.36603 182.618 7.21478 182.618 10.61H203.549C204.245 10.61 204.554 10.9186 204.554 11.6129V15.1624C204.554 15.857 204.245 16.1655 203.549 16.1655H182.618C182.618 19.7922 183.469 20.6794 186.835 20.6794H203.78C204.477 20.6794 204.787 20.988 204.787 21.6826V26.0035C204.787 26.6594 204.477 27.0064 203.78 27.0064H186.719C178.787 27.0064 175.77 24.2285 175.77 16.8211V10.1853C175.77 2.77787 178.788 0 186.719 0H203.78Z" fill="#F3651C"/>
<path d="M216.63 0C217.288 0 217.636 0.347299 217.636 1.00316V16.1268C217.636 19.599 218.449 20.4865 221.815 20.4865H237.445C238.142 20.4865 238.49 20.8338 238.49 21.4894V26.0035C238.49 26.6594 238.142 27.0064 237.445 27.0064H221.544C213.613 27.0064 210.595 24.2285 210.595 16.8211V1.00316C210.595 0.347041 210.943 0 211.601 0H216.63Z" fill="#F3651C"/>
<path d="M270.994 0C271.691 0 272 0.347299 272 1.00316V5.32439C272 6.01873 271.691 6.36603 270.994 6.36603H254.203C250.837 6.36603 250.025 7.21478 250.025 10.9958H270.762C271.458 10.9958 271.768 11.3431 271.768 11.999V15.5869C271.768 16.2427 271.458 16.5898 270.762 16.5898H250.025V26.0038C250.025 26.6596 249.676 27.0067 249.019 27.0067H243.989C243.331 27.0067 242.983 26.6594 242.983 26.0038V10.1855C242.983 2.77787 246.001 0 253.932 0H270.994Z" fill="#F3651C"/>
<path d="M135.546 36.6771C135.938 36.6771 136.145 36.8839 136.145 37.2743V39.9621C136.145 40.3525 135.938 40.5593 135.546 40.5593H128.612V52.1599C128.612 52.5503 128.405 52.7571 128.014 52.7571H125.042C124.627 52.7571 124.419 52.5503 124.419 52.1599V40.5593H117.509C117.094 40.5593 116.91 40.3525 116.91 39.9621V37.2743C116.91 36.8839 117.094 36.6771 117.509 36.6771H135.546Z" fill="#005387"/>
<path d="M145.128 36.6771C145.52 36.6771 145.727 36.8839 145.727 37.2743V42.9027H155.356V37.2743C155.356 36.8839 155.564 36.6771 155.955 36.6771H158.95C159.342 36.6771 159.549 36.8839 159.549 37.2743V52.1599C159.549 52.5503 159.342 52.7572 158.95 52.7572H155.955C155.564 52.7572 155.356 52.5503 155.356 52.1599V46.417H145.727V52.1599C145.727 52.5503 145.52 52.7572 145.128 52.7572H142.134C141.742 52.7572 141.535 52.5503 141.535 52.1599V37.2743C141.535 36.8839 141.742 36.6771 142.134 36.6771H145.128Z" fill="#005387"/>
<path d="M182.446 36.6771C182.861 36.6771 183.045 36.8839 183.045 37.2743V39.8472C183.045 40.2606 182.861 40.4674 182.446 40.4674H172.356C170.375 40.4674 169.845 40.973 169.845 42.9943H182.308C182.722 42.9943 182.907 43.1782 182.907 43.5916V45.7051C182.907 46.1185 182.722 46.3023 182.308 46.3023H169.845C169.845 48.4618 170.352 48.9898 172.356 48.9898H182.446C182.861 48.9898 183.045 49.1736 183.045 49.5871V52.1599C183.045 52.5503 182.861 52.7572 182.446 52.7572H172.287C167.565 52.7572 165.768 51.1033 165.768 46.6925V42.7413C165.768 38.3307 167.565 36.6766 172.287 36.6766L182.446 36.6771Z" fill="#005387"/>
<path d="M202.601 36.6771C207.324 36.6771 209.121 38.331 209.121 42.7418V46.693C209.121 51.1036 207.324 52.7577 202.601 52.7577H195.414C190.692 52.7577 188.895 51.1038 188.895 46.693V42.7418C188.895 38.3312 190.692 36.6771 195.414 36.6771H202.601ZM193.088 46.3713C193.088 48.4615 193.571 48.9901 195.575 48.9901H202.44C204.444 48.9901 204.928 48.4618 204.928 46.3713V43.0633C204.928 40.9728 204.444 40.4672 202.44 40.4672H195.575C193.571 40.4672 193.088 40.9728 193.088 43.0633V46.3713Z" fill="#005387"/>
<path d="M228.493 36.6771C232.11 36.6771 233.538 38.331 233.538 41.4321V42.8334C233.538 45.3601 232.594 46.8993 230.29 47.4049L233.999 52.0912C234.16 52.2981 234.137 52.7574 233.653 52.7574H230.106C229.668 52.7574 229.53 52.6428 229.368 52.4359L225.982 47.8415H219.532V52.1599C219.532 52.5503 219.324 52.7572 218.933 52.7572H215.938C215.546 52.7572 215.339 52.5503 215.339 52.1599V37.3663C215.339 36.9066 215.569 36.6771 216.03 36.6771H228.493ZM219.533 44.5565H227.664C228.931 44.5565 229.346 44.0509 229.346 42.9713V41.9837C229.346 40.9038 228.931 40.3985 227.664 40.3985H219.809C219.624 40.3985 219.533 40.4904 219.533 40.6972V44.5565Z" fill="#005387"/>
<path d="M241.208 36.6771C241.508 36.6771 241.669 36.7688 241.83 36.9988L247.382 44.7631L252.934 36.9988C253.118 36.769 253.279 36.6771 253.579 36.6771H257.173C257.472 36.6771 257.587 36.9526 257.403 37.2054L249.386 47.9332V52.1599C249.386 52.5503 249.202 52.7572 248.787 52.7572H245.816C245.401 52.7572 245.217 52.5503 245.217 52.1599V47.9332L237.269 37.2054C237.085 36.9529 237.2 36.6771 237.499 36.6771H241.208Z" fill="#005387"/>
</g>
<defs>
<clipPath id="clip0_109_29">
<rect width="272" height="55" fill="white"/>
</clipPath>
</defs>
</svg>
