<svg width="40" height="29" viewBox="0 0 40 29" fill="none" xmlns="http://www.w3.org/2000/svg">
<g clip-path="url(#clip0_21_427)">
<path d="M34.6703 16.6722H2.37739C1.06467 16.6722 0 15.611 0 14.3025C0 12.9941 1.06467 11.9329 2.37739 11.9329H34.6703C35.983 11.9329 37.0477 12.9941 37.0477 14.3025C37.0477 15.611 35.983 16.6722 34.6703 16.6722Z" fill="#F3651C"/>
<path d="M22.9822 28.9999C22.3332 28.9999 21.6866 28.7365 21.2174 28.2187C20.337 27.2476 20.4135 25.7491 21.3878 24.872L32.9067 14.4999L21.3878 4.12788C20.4135 3.25071 20.337 1.75229 21.2174 0.78112C22.0971 -0.189655 23.6004 -0.266274 24.5751 0.611293L40 14.5003L24.5751 28.3885C24.1206 28.7981 23.5504 28.9999 22.9822 28.9999Z" fill="#F3651C"/>
</g>
<defs>
<clipPath id="clip0_21_427">
<rect width="40" height="29" fill="white"/>
</clipPath>
</defs>
</svg>
