<svg width="19" height="14" viewBox="0 0 19 14" fill="none" xmlns="http://www.w3.org/2000/svg">
<g clip-path="url(#clip0_18_285)">
<path d="M16.4684 8.04864H1.12926C0.505721 8.04864 0 7.53632 0 6.90466C0 6.27299 0.505721 5.76068 1.12926 5.76068H16.4684C17.0919 5.76068 17.5976 6.27299 17.5976 6.90466C17.5976 7.53632 17.0919 8.04864 16.4684 8.04864Z" fill="white"/>
<path d="M10.9166 14C10.6083 14 10.3011 13.8728 10.0783 13.6229C9.66007 13.154 9.69639 12.4306 10.1592 12.0072L15.6307 6.99999L10.1592 1.9928C9.69639 1.56934 9.66007 0.845963 10.0783 0.377123C10.4961 -0.0915269 11.2102 -0.128516 11.6732 0.295138L19 7.00018L11.6732 13.7048C11.4573 13.9026 11.1865 14 10.9166 14Z" fill="white"/>
</g>
<defs>
<clipPath id="clip0_18_285">
<rect width="19" height="14" fill="white"/>
</clipPath>
</defs>
</svg>
