<svg width="77" height="58" viewBox="0 0 77 58" fill="none" xmlns="http://www.w3.org/2000/svg">
<path d="M0.698291 21.803C1.29318 22.0565 1.88806 22.31 2.49986 22.6213C5.34632 24.1189 13.81 28.1301 16.8786 29.0514C19.1567 29.7182 21.4259 30.5775 23.6783 31.3789C23.8908 31.4378 24.0437 31.5156 24.2563 31.5745C24.2989 31.4978 24.2989 31.4978 24.3416 31.421C24.2651 31.3821 24.146 31.4199 24.0695 31.381C22.8032 30.8352 22.0055 29.8876 21.7783 28.4426C21.5432 26.7473 20.1655 21.8119 19.576 18.4591C19.5253 18.2856 22.2061 22.1116 22.1723 21.9959C22.1385 21.8803 19.4327 17.7461 19.4415 17.5537C19.3577 16.8217 19.2482 16.2244 19.3255 15.8205C19.377 15.5513 19.4115 15.2242 19.463 14.955C19.5314 14.7436 19.6932 14.629 19.88 14.8225C21.1109 16.1382 22.4013 17.4349 23.5131 18.7884C24.3109 19.736 27.0628 26.7001 27.7583 27.7434C28.1657 28.2461 28.5731 28.7488 29.04 29.2326C29.1503 29.3872 29.3797 29.5039 29.5495 29.6396C29.9849 28.6794 30.5902 27.8549 31.4249 27.1472C32.0552 26.6308 32.7619 26.1534 33.6296 26.0041C34.3187 25.9115 34.9393 26.0304 35.4489 26.4374C35.9423 26.3438 36.0019 26.3249 36.385 26.0767C39.2199 24.4172 41.9423 23.9314 41.7636 23.9882C40.9377 24.5035 40.495 24.7706 39.6861 25.3438C37.9491 26.5279 36.365 27.7899 35.3751 29.748C34.5388 31.3413 33.399 31.4506 33.2599 33.2016C33.1642 34.4331 33.4605 35.224 33.4839 36.4176C33.5212 39.4401 30.4883 42.4268 27.5761 44.4901C25.9655 46.3294 25.4094 48.2129 24.2496 50.0354C23.5068 51.7254 22.2786 53.7593 22.1933 53.9129C22.1337 53.9318 21.8101 54.1611 21.6917 53.7562C21.7014 53.121 23.1967 49.1057 23.2063 48.4705C23.0011 49.1047 22.8892 49.8356 22.2156 50.8715C21.158 52.5983 20.5784 53.2881 19.1981 54.8015C19.0789 54.8393 18.9598 54.8772 18.8407 54.915C18.5943 54.7405 18.7054 54.4523 18.7738 54.2409C19.1915 53.6657 19.8137 52.899 20.5477 51.4015C20.7441 50.9598 21.3501 49.6925 21.47 49.2119C21.47 49.2119 21.47 49.2119 21.3678 49.3076C20.8309 49.9207 17.9414 53.6204 16.742 53.7487C16.4273 53.7855 20.4524 47.5124 20.5039 47.2432C20.829 46.1284 21.1276 45.591 21.402 44.3028C21.7448 42.8031 22.3001 41.3623 22.7363 39.9594C22.9415 39.3253 22.8908 39.1517 22.2106 39.0518C21.5135 38.8941 20.7737 38.8131 20.0171 38.6742C18.0529 38.4134 16.1741 37.999 14.4321 37.1618C12.6136 36.2857 6.31854 32.344 4.45088 30.4089C4.34059 30.2543 12.8589 32.2253 12.7486 32.0707C12.6552 31.9739 4.00972 29.7905 3.91633 29.6937C3.56855 29.1721 3.22076 28.6505 2.85607 28.071C2.74578 27.9164 9.79258 29.9757 9.74185 29.8022C9.63156 29.6476 2.42375 27.2601 2.31345 27.1056C1.51643 25.7152 0.92386 24.1335 0.450417 22.514C0.382783 22.2826 0.451188 22.0712 0.383554 21.8398C0.519594 21.8598 0.638725 21.822 0.698291 21.803Z" fill="#857168"/>
<path d="M56.2472 23.8739C56.545 23.7793 56.809 23.5689 56.9966 23.3197L66.8738 6.77935L38.3418 15.8462L55.3883 23.8308C55.6177 23.9475 55.9494 23.9686 56.2472 23.8739Z" fill="#857168"/>
<path d="M49.1997 22.2572L37.5748 16.7852L42.5122 33.675L49.1997 22.2572Z" fill="#857168"/>
<path d="M60.7201 19.355L58.0077 23.8834C57.7091 24.4208 57.2237 24.7647 56.6281 24.954C56.0324 25.1432 55.4287 25.0822 54.9103 24.8677L50.296 22.6675L43.6085 34.0853L72.4383 24.9238L60.7201 19.355Z" fill="#857168"/>
<path d="M72.9759 23.8679L68.0724 7.09377L61.3341 18.338L72.9759 23.8679Z" fill="#857168"/>
</svg>
