<svg width="9" height="19" viewBox="0 0 9 19" fill="none" xmlns="http://www.w3.org/2000/svg">
<path d="M5.621 19C4.53203 19 3.44306 19 2.35409 19C2.35409 18.8691 2.34609 18.734 2.34609 18.6031C2.34609 15.8122 2.34609 13.0256 2.34609 10.2347C2.34609 10.1207 2.34609 9.33533 2.34609 9.21711C1.54137 9.21711 0.772687 9.21711 0 9.21711C0 8.14044 0 7.068 0 5.99133C0.772687 5.99133 1.54137 5.99133 2.34609 5.99133C2.34609 5.852 2.33007 4.50511 2.34609 3.58889C2.37811 2.07733 3.0347 0.912 4.33185 0.266C4.6161 0.122444 4.90036 0.0337778 5.24466 0C6.49377 0 7.75089 0 9 0C9 1.09778 9 2.15756 9 3.25111C8.8919 3.25111 7.35854 3.24267 6.66993 3.24267C5.93327 3.24267 5.64101 3.74511 5.64902 4.31933C5.65703 4.94844 5.64902 5.814 5.64902 5.99133C6.79004 5.99133 7.89502 5.99133 9 5.99133C9 6.08844 8.79982 8.10244 8.73176 8.93422C8.71575 9.12844 8.6637 9.19178 8.47153 9.19178C7.78292 9.18333 5.89724 9.19178 5.61299 9.19178C5.621 12.2571 5.621 15.9684 5.621 19Z" fill="#161616"/>
</svg>
