<svg width="78" height="27" viewBox="0 0 78 27" fill="none" xmlns="http://www.w3.org/2000/svg">
<rect y="6.01855" width="18.6667" height="0.962963" fill="white"/>
<rect x="59.3333" y="6.01855" width="18.6667" height="0.962963" fill="white"/>
<path d="M59 6C59 17.0457 50.0457 26 39 26C27.9543 26 19 17.0457 19 6" stroke="white"/>
<g clip-path="url(#clip0_184_15)">
<path d="M44.1346 6.32405H32.8321C32.3726 6.32405 32 5.92152 32 5.42521C32 4.9289 32.3726 4.52637 32.8321 4.52637H44.1346C44.594 4.52637 44.9667 4.9289 44.9667 5.42521C44.9667 5.92152 44.594 6.32405 44.1346 6.32405Z" fill="white"/>
<path d="M40.0438 11C39.8166 11 39.5903 10.9 39.4261 10.7037C39.118 10.3353 39.1447 9.76691 39.4857 9.43419L43.5173 5.49997L39.4857 1.56575C39.1447 1.23303 39.118 0.664661 39.4261 0.296287C39.734 -0.071938 40.2601 -0.101 40.6013 0.23187L46 5.50012L40.6013 10.7681C40.4422 10.9234 40.2427 11 40.0438 11Z" fill="white"/>
</g>
<defs>
<clipPath id="clip0_184_15">
<rect width="14" height="11" fill="white" transform="translate(32)"/>
</clipPath>
</defs>
</svg>
