<svg width="15" height="20" viewBox="0 0 15 20" fill="none" xmlns="http://www.w3.org/2000/svg">
<path d="M6.32823 0C6.29118 0.0875803 6.37456 0.0660153 6.40765 0.0814189C6.82323 0.275504 7.04073 0.595458 7.0747 1.0558C7.16647 2.30129 7.26926 3.5459 7.3672 4.79139C7.46426 6.02368 7.56838 7.25508 7.65618 8.48781C7.69941 9.09515 7.44176 9.49784 6.94059 9.67124C6.40985 9.85521 5.90118 9.67652 5.60868 9.18933C5.34088 8.74307 5.08588 8.28932 4.82515 7.83866C3.82147 6.10422 2.82132 4.36757 1.81191 2.63665C1.58471 2.24716 1.51765 1.86427 1.74132 1.4563C1.91382 1.14162 2.20235 0.993751 2.53412 0.90441C3.51529 0.640349 4.49603 0.375407 5.475 0.103864C5.53809 0.08626 5.64882 0.119708 5.66206 0.000440102C5.88441 0 6.10632 0 6.32823 0Z" fill="#161616"/>
<path d="M6.21088 20C6.22324 19.8922 6.12265 19.916 6.07456 19.897C5.23368 19.5621 4.38971 19.2351 3.54794 18.902C3.07235 18.7136 2.85 18.347 2.91618 17.8827C2.94176 17.7022 3.02824 17.5513 3.14118 17.414C4.0425 16.3172 4.94338 15.2196 5.84868 14.126C6.14603 13.7668 6.53471 13.6621 6.93221 13.8135C7.32132 13.9614 7.54632 14.2958 7.53574 14.747C7.50132 16.1909 7.4625 17.6349 7.42015 19.0789C7.40824 19.4785 7.21632 19.769 6.84618 19.9358C6.83074 19.9428 6.82191 19.9644 6.81 19.9793C6.81927 19.9864 6.82809 19.993 6.83735 20C6.62824 20 6.41956 20 6.21088 20Z" fill="#161616"/>
<path d="M14.9996 15.1452C15.0026 15.3323 14.9171 15.5193 14.7891 15.6888C14.2249 16.4369 13.6654 17.1891 13.0924 17.9306C12.6763 18.4689 11.9806 18.4601 11.5844 17.9055C10.7488 16.7349 9.92515 15.5563 9.10324 14.3764C8.85309 14.0172 8.86588 13.6185 9.11029 13.2845C9.35029 12.9557 9.73544 12.8237 10.1524 12.9496C11.5416 13.3699 12.93 13.7946 14.3166 14.2237C14.756 14.3596 15.0097 14.7029 14.9996 15.1452Z" fill="#161616"/>
<path d="M8.94397 10.2865C8.93691 10.0959 9.01632 9.9067 9.14382 9.73594C10.0081 8.57848 10.8675 7.41749 11.7397 6.26574C12.1751 5.69053 12.8894 5.72133 13.2918 6.32295C13.8053 7.09093 14.314 7.86199 14.816 8.63701C15.2025 9.23423 14.9519 9.88602 14.2654 10.077C12.9049 10.456 11.5434 10.8318 10.1797 11.2006C9.52412 11.3784 8.94397 10.955 8.94397 10.2865Z" fill="#161616"/>
<path d="M0.0948526 11.5223C0.0948526 11.0672 0.0838232 10.6117 0.0974996 10.1571C0.118676 9.4534 0.689559 9.05862 1.35441 9.29276C2.69912 9.76631 4.04073 10.2495 5.38147 10.7341C5.80985 10.889 6.03662 11.2147 6.03265 11.6328C6.02868 12.0482 5.79176 12.3761 5.3625 12.5178C3.99 12.9711 2.61706 13.4227 1.24059 13.8632C0.554117 14.0828 -0.0136768 13.6454 0.000440817 12.9267C0.00529376 12.6925 0.0189702 12.4589 0.0229408 12.2247C0.0269114 11.9906 0.0238232 11.7569 0.0238232 11.5228C0.0476467 11.5223 0.0710291 11.5223 0.0948526 11.5223Z" fill="#161616"/>
</svg>
