<svg width="22" height="16" viewBox="0 0 22 16" fill="none" xmlns="http://www.w3.org/2000/svg">
<g clip-path="url(#clip0_17_194)">
<path d="M20.2282 16H1.77181C0.794878 16 0 15.1658 0 14.1404V1.85956C0 0.834245 0.794878 0 1.77181 0H20.2282C21.2051 0 22 0.834245 22 1.85956V14.1404C22 15.1658 21.2051 16 20.2282 16Z" fill="#D3BAAE"/>
<path d="M20.3124 2.18973C20.2793 2.14534 20.2463 2.10082 20.2132 2.05643C20.0422 2.17904 19.8629 2.29085 19.7014 2.42578C17.1185 4.58473 14.5356 6.74356 11.958 8.90937C11.4962 9.29732 11.2504 9.4813 10.9999 9.46491C10.7494 9.4813 10.5035 9.29732 10.0418 8.90937C7.46425 6.74356 4.88128 4.58473 2.29843 2.42578C2.13686 2.29073 1.95769 2.17893 1.7866 2.05643C1.75349 2.10082 1.72049 2.14534 1.68738 2.18973C3.71499 4.26721 5.74261 6.34469 7.80123 8.45389C5.91868 10.2428 4.03015 12.0371 2.14174 13.8316C2.16964 13.8689 2.19744 13.9062 2.22534 13.9435C4.39382 12.3922 6.56218 10.8409 8.74936 9.27628C9.07272 9.55394 9.37725 9.83392 9.69972 10.089C10.1655 10.4576 10.5862 10.6389 11 10.6361C11.4138 10.6389 11.8345 10.4575 12.3003 10.089C12.6228 9.83392 12.9273 9.55406 13.2506 9.27628C15.4377 10.841 17.6062 12.3922 19.7747 13.9435C19.8026 13.9062 19.8304 13.8689 19.8583 13.8316C17.9697 12.0371 16.0813 10.2427 14.1987 8.45378C16.2572 6.34457 18.2848 4.26709 20.3124 2.18973Z" fill="white"/>
</g>
<defs>
<clipPath id="clip0_17_194">
<rect width="22" height="16" fill="white"/>
</clipPath>
</defs>
</svg>
