<svg width="16" height="21" viewBox="0 0 16 21" fill="none" xmlns="http://www.w3.org/2000/svg">
<path d="M13.8661 2.1868C12.5085 0.7952 10.5695 0 8.43615 0C5.23606 0 3.20009 1.3916 2.13339 2.485C0.775779 3.87613 0 5.76473 0 7.65333C0 9.93953 0.969725 11.7283 2.52128 12.4241C2.61826 12.4241 2.71523 12.5235 2.8122 12.5235C3.10312 12.5235 3.39404 12.3247 3.49101 11.9271C3.58798 11.7283 3.68495 11.2313 3.68495 11.0325C3.78193 10.6349 3.68495 10.3367 3.49101 10.0385C3.00615 9.44207 2.8122 8.84567 2.8122 7.95107C2.8122 5.36667 4.65468 2.68333 8.04826 2.68333C10.7635 2.68333 12.4116 4.27373 12.4116 6.85767C12.4116 8.44807 12.1206 9.93907 11.4418 11.032C11.0539 11.8272 10.2782 12.7218 9.1145 12.7218C8.62964 12.7218 8.14478 12.523 7.85386 12.1254C7.56294 11.8272 7.46597 11.3302 7.56294 10.8332C7.65991 10.3362 7.85386 9.7398 8.0478 9.2428C8.33872 8.2488 8.62964 7.3542 8.62964 6.6584C8.62964 5.3662 7.85386 4.571 6.78716 4.571C5.33257 4.571 4.26588 6.062 4.26588 7.9506C4.26588 8.8452 4.45982 9.541 4.65377 9.8392C4.46028 10.6353 3.39404 15.2073 3.20009 16.1019C3.10312 16.5989 2.42431 20.5744 3.58798 20.972C4.84862 21.3696 6.01229 17.3936 6.20624 16.9965C6.30321 16.5989 6.59413 15.3067 6.88504 14.4121C7.46688 15.0085 8.53358 15.4061 9.5033 15.4061C11.3458 15.4061 12.9943 14.5115 14.2545 13.0205C15.4182 11.5295 16 9.44207 16 7.05693C15.9995 5.26773 15.2238 3.479 13.8661 2.1868Z" fill="#161616"/>
</svg>
