<svg width="522" height="173" viewBox="0 0 522 173" fill="none" xmlns="http://www.w3.org/2000/svg">
<rect x="482.048" y="56.9301" width="65" height="68" transform="rotate(89.8748 482.048 56.9301)" fill="url(#paint0_linear_408_2)"/>
<rect x="408.048" y="88.9301" width="65" height="68" transform="rotate(89.8748 408.048 88.9301)" fill="url(#paint1_linear_408_2)"/>
<rect x="330.048" y="21.9301" width="65" height="68" transform="rotate(89.8748 330.048 21.9301)" fill="url(#paint2_linear_408_2)"/>
<rect x="169.048" y="34.9301" width="65" height="68" transform="rotate(89.8748 169.048 34.9301)" fill="url(#paint3_linear_408_2)"/>
<rect x="272.048" y="106.93" width="65" height="68" transform="rotate(89.8748 272.048 106.93)" fill="url(#paint4_linear_408_2)"/>
<rect x="450" y="35" width="49" height="52" transform="rotate(89.8748 450 35)" fill="url(#paint5_linear_408_2)"/>
<rect x="376" y="67" width="49" height="52" transform="rotate(89.8748 376 67)" fill="url(#paint6_linear_408_2)"/>
<rect x="517" y="102" width="49" height="52" transform="rotate(89.8748 517 102)" fill="url(#paint7_linear_408_2)"/>
<rect x="298" width="49" height="52" transform="rotate(89.8748 298 0)" fill="url(#paint8_linear_408_2)"/>
<rect x="137" y="13" width="49" height="52" transform="rotate(89.8748 137 13)" fill="url(#paint9_linear_408_2)"/>
<rect x="240" y="85" width="49" height="52" transform="rotate(89.8748 240 85)" fill="url(#paint10_linear_408_2)"/>
<rect x="345.217" y="102" width="35.07" height="37.2171" transform="rotate(89.8748 345.217 102)" fill="url(#paint11_linear_408_2)"/>
<rect x="497.217" y="14" width="35.07" height="37.2171" transform="rotate(89.8748 497.217 14)" fill="url(#paint12_linear_408_2)"/>
<rect x="37.217" y="44" width="35.07" height="37.2171" transform="rotate(89.8748 37.217 44)" fill="url(#paint13_linear_408_2)"/>
<rect x="216.976" y="28" width="25.4197" height="26.9761" transform="rotate(89.8748 216.976 28)" fill="url(#paint14_linear_408_2)"/>
<rect x="55.5684" y="10" width="18.4394" height="19.5683" transform="rotate(89.8748 55.5684 10)" fill="url(#paint15_linear_408_2)"/>
<rect x="375.568" y="19" width="18.4394" height="19.5683" transform="rotate(89.8748 375.568 19)" fill="url(#paint16_linear_408_2)"/>
<rect x="521.568" y="1" width="18.4394" height="19.5683" transform="rotate(89.8748 521.568 1)" fill="url(#paint17_linear_408_2)"/>
<defs>
<linearGradient id="paint0_linear_408_2" x1="514.548" y1="56.9301" x2="514.548" y2="124.93" gradientUnits="userSpaceOnUse">
<stop stop-color="white" stop-opacity="0.1"/>
<stop offset="1" stop-color="white" stop-opacity="0"/>
</linearGradient>
<linearGradient id="paint1_linear_408_2" x1="440.548" y1="88.9301" x2="440.548" y2="156.93" gradientUnits="userSpaceOnUse">
<stop stop-color="white" stop-opacity="0.1"/>
<stop offset="1" stop-color="white" stop-opacity="0"/>
</linearGradient>
<linearGradient id="paint2_linear_408_2" x1="362.548" y1="21.9301" x2="362.548" y2="89.9301" gradientUnits="userSpaceOnUse">
<stop stop-color="white" stop-opacity="0.1"/>
<stop offset="1" stop-color="white" stop-opacity="0"/>
</linearGradient>
<linearGradient id="paint3_linear_408_2" x1="201.548" y1="34.9301" x2="201.548" y2="102.93" gradientUnits="userSpaceOnUse">
<stop stop-color="white" stop-opacity="0.1"/>
<stop offset="1" stop-color="white" stop-opacity="0"/>
</linearGradient>
<linearGradient id="paint4_linear_408_2" x1="304.548" y1="106.93" x2="304.548" y2="174.93" gradientUnits="userSpaceOnUse">
<stop stop-color="white" stop-opacity="0.1"/>
<stop offset="1" stop-color="white" stop-opacity="0"/>
</linearGradient>
<linearGradient id="paint5_linear_408_2" x1="474.5" y1="35" x2="474.5" y2="87" gradientUnits="userSpaceOnUse">
<stop stop-color="white" stop-opacity="0.1"/>
<stop offset="1" stop-color="white" stop-opacity="0"/>
</linearGradient>
<linearGradient id="paint6_linear_408_2" x1="400.5" y1="67" x2="400.5" y2="119" gradientUnits="userSpaceOnUse">
<stop stop-color="white" stop-opacity="0.2"/>
<stop offset="1" stop-color="white" stop-opacity="0"/>
</linearGradient>
<linearGradient id="paint7_linear_408_2" x1="541.5" y1="102" x2="541.5" y2="154" gradientUnits="userSpaceOnUse">
<stop stop-color="white" stop-opacity="0.1"/>
<stop offset="1" stop-color="white" stop-opacity="0"/>
</linearGradient>
<linearGradient id="paint8_linear_408_2" x1="322.5" y1="0" x2="322.5" y2="52" gradientUnits="userSpaceOnUse">
<stop stop-color="white" stop-opacity="0.1"/>
<stop offset="1" stop-color="white" stop-opacity="0"/>
</linearGradient>
<linearGradient id="paint9_linear_408_2" x1="161.5" y1="13" x2="161.5" y2="65" gradientUnits="userSpaceOnUse">
<stop stop-color="white" stop-opacity="0.1"/>
<stop offset="1" stop-color="white" stop-opacity="0"/>
</linearGradient>
<linearGradient id="paint10_linear_408_2" x1="264.5" y1="85" x2="264.5" y2="137" gradientUnits="userSpaceOnUse">
<stop stop-color="white" stop-opacity="0.1"/>
<stop offset="1" stop-color="white" stop-opacity="0"/>
</linearGradient>
<linearGradient id="paint11_linear_408_2" x1="362.752" y1="102" x2="362.752" y2="139.217" gradientUnits="userSpaceOnUse">
<stop stop-color="white" stop-opacity="0.1"/>
<stop offset="1" stop-color="white" stop-opacity="0"/>
</linearGradient>
<linearGradient id="paint12_linear_408_2" x1="514.752" y1="14" x2="514.752" y2="51.2171" gradientUnits="userSpaceOnUse">
<stop stop-color="white" stop-opacity="0.1"/>
<stop offset="1" stop-color="white" stop-opacity="0"/>
</linearGradient>
<linearGradient id="paint13_linear_408_2" x1="54.752" y1="44" x2="54.752" y2="81.2171" gradientUnits="userSpaceOnUse">
<stop stop-color="white" stop-opacity="0.1"/>
<stop offset="1" stop-color="white" stop-opacity="0"/>
</linearGradient>
<linearGradient id="paint14_linear_408_2" x1="229.686" y1="28" x2="229.686" y2="54.9761" gradientUnits="userSpaceOnUse">
<stop stop-color="white" stop-opacity="0.1"/>
<stop offset="1" stop-color="white" stop-opacity="0"/>
</linearGradient>
<linearGradient id="paint15_linear_408_2" x1="64.7881" y1="10" x2="64.7881" y2="29.5683" gradientUnits="userSpaceOnUse">
<stop stop-color="white" stop-opacity="0.1"/>
<stop offset="1" stop-color="white" stop-opacity="0"/>
</linearGradient>
<linearGradient id="paint16_linear_408_2" x1="384.788" y1="19" x2="384.788" y2="38.5683" gradientUnits="userSpaceOnUse">
<stop stop-color="white" stop-opacity="0.1"/>
<stop offset="1" stop-color="white" stop-opacity="0"/>
</linearGradient>
<linearGradient id="paint17_linear_408_2" x1="530.788" y1="1" x2="530.788" y2="20.5683" gradientUnits="userSpaceOnUse">
<stop stop-color="white" stop-opacity="0.1"/>
<stop offset="1" stop-color="white" stop-opacity="0"/>
</linearGradient>
</defs>
</svg>
