<svg width="15" height="16" viewBox="0 0 15 16" fill="none" xmlns="http://www.w3.org/2000/svg">
<g clip-path="url(#clip0_27_236)">
<path d="M3.71766 1.13983L5.88539 4.2264C6.10957 4.54548 6.04577 4.99583 5.74309 5.23199L5.06165 5.7639C4.75896 6.00022 4.33175 5.93297 4.10772 5.61389L1.93983 2.52732C1.71564 2.20825 1.77944 1.75789 2.08213 1.52174L2.76357 0.989828C3.06642 0.753499 3.49363 0.820754 3.71766 1.13983Z" fill="white"/>
<path d="M4.65737 5.99026C4.61957 5.99026 4.58129 5.98719 4.54317 5.98123C4.3416 5.94939 4.16393 5.83702 4.04279 5.66437L1.87506 2.5778C1.75392 2.40515 1.70353 2.19317 1.73373 1.98068C1.76378 1.76819 1.87054 1.5809 2.03432 1.45303L2.71592 0.921121C2.8797 0.793422 3.08063 0.740469 3.28237 0.772138C3.48394 0.803808 3.66161 0.916353 3.78291 1.089L5.95032 4.17574C6.07146 4.34839 6.12169 4.56037 6.09165 4.77269C6.06144 4.98518 5.95484 5.17247 5.79106 5.30034L5.10946 5.83225C4.97685 5.93577 4.81953 5.99026 4.65737 5.99026ZM3.16833 0.93372C3.04041 0.93372 2.91637 0.976627 2.8117 1.05818L2.1301 1.59009C2.00104 1.69089 1.91689 1.83851 1.89331 2.00605C1.86957 2.17342 1.90914 2.34062 2.00476 2.47666L4.17249 5.56306C4.26795 5.6991 4.40815 5.78781 4.56692 5.81284C4.72537 5.8377 4.88414 5.79599 5.01335 5.69536L5.69496 5.16345C5.82401 5.06265 5.90816 4.91503 5.93174 4.74766C5.95532 4.58029 5.91575 4.41309 5.8203 4.27705L3.65289 1.19031C3.55727 1.05427 3.41723 0.96556 3.2583 0.940701C3.22826 0.935934 3.19822 0.93372 3.16833 0.93372Z" fill="white"/>
<path d="M12.2497 13.2882L10.0819 10.2018C9.85775 9.88277 9.4307 9.81551 9.12802 10.0518L8.44657 10.5837C8.14389 10.8201 8.08009 11.2703 8.30427 11.5893L10.472 14.6759C10.6962 14.995 11.1232 15.0622 11.4259 14.8259L12.1074 14.294C12.4101 14.0577 12.4737 13.6073 12.2497 13.2882Z" fill="white"/>
<path d="M11.0217 15.0523C10.9839 15.0523 10.9456 15.0492 10.9075 15.0433C10.7059 15.0114 10.5281 14.8989 10.4069 14.7262L8.23935 11.64C8.11805 11.4674 8.06781 11.2552 8.09786 11.0429C8.12806 10.8304 8.23466 10.6429 8.39828 10.5152L9.07989 9.98315C9.24366 9.85528 9.44443 9.8025 9.64633 9.83417C9.8479 9.866 10.0257 9.97838 10.1469 10.1509L12.3146 13.2374C12.4357 13.4101 12.486 13.6222 12.4559 13.8345C12.4257 14.047 12.3191 14.2345 12.1555 14.3622L11.4739 14.8943C11.341 14.9978 11.1838 15.0523 11.0217 15.0523ZM9.53262 9.99541C9.4047 9.99541 9.28065 10.0383 9.17615 10.1199L8.49454 10.6519C8.36533 10.7526 8.28134 10.9004 8.2576 11.0677C8.23385 11.2351 8.27359 11.4023 8.36888 11.5384L10.5366 14.6248C10.6322 14.761 10.7723 14.8497 10.931 14.8747C11.0897 14.899 11.2484 14.858 11.3775 14.7574L12.0591 14.2253C12.1883 14.1247 12.2723 13.9769 12.296 13.8095C12.3198 13.6422 12.28 13.4749 12.1847 13.3389H12.1846L10.017 10.2523C9.92155 10.1161 9.78136 10.0276 9.62258 10.0026C9.59254 9.99779 9.56234 9.99541 9.53262 9.99541Z" fill="white"/>
<path d="M2.62887 11.3929C7.35455 18.3004 10.3538 15.2384 10.3538 15.2384L7.83087 11.6463C6.20164 12.6531 4.3164 10.0759 4.3164 10.0759C4.3164 10.0759 2.5284 7.42286 3.91745 6.07402L1.39471 2.48193C1.39471 2.48193 -2.25915 4.61212 2.62887 11.3929Z" fill="white"/>
<path d="M8.50246 15.9998C8.40184 15.9998 8.29733 15.9952 8.18944 15.9852C6.40451 15.8185 4.51184 14.2903 2.5641 11.4435C0.549485 8.6486 -0.284593 6.29418 0.0852826 4.44595C0.376015 2.99307 1.31573 2.43035 1.35546 2.40719L1.41732 2.37109L4.02535 6.08475L3.97205 6.13651C2.65164 7.41878 4.36486 10.0005 4.3823 10.0266C4.39894 10.049 6.24153 12.529 7.79017 11.5727L7.85284 11.5341L10.4607 15.2476L10.41 15.2995C10.3798 15.3302 9.709 15.9998 8.50246 15.9998ZM1.37436 2.59601C1.16681 2.74415 0.474864 3.31539 0.242278 4.48647C-0.00322912 5.72209 0.222896 7.91425 2.69315 11.3412L2.69444 11.3431C5.08264 14.834 7.00568 15.7018 8.19832 15.8151C9.32717 15.9218 10.0492 15.3915 10.2441 15.2253L7.80842 11.7571C7.54531 11.9053 7.27783 11.9678 7.01407 11.9678C5.61775 11.9681 4.31786 10.2171 4.25244 10.1277C4.17685 10.0157 2.48156 7.46083 3.81021 6.06432L1.37436 2.59601Z" fill="white"/>
<path d="M11.9746 9.42814C11.8795 9.42814 11.7832 9.39868 11.6991 9.33722C11.4792 9.17649 11.4245 8.85826 11.5768 8.62636C12.4097 7.35941 12.3889 5.6726 11.5249 4.42915C10.6539 3.17566 9.12527 2.64902 7.71974 3.11896C7.46487 3.20426 7.19223 3.05562 7.11131 2.7866C7.03038 2.51775 7.17155 2.23051 7.42659 2.14521C9.22848 1.54247 11.1896 2.21774 12.3065 3.82539C13.4147 5.42009 13.4415 7.58331 12.3732 9.20816C12.2792 9.35152 12.1282 9.42814 11.9746 9.42814Z" fill="white"/>
<path d="M13.5796 10.3307C13.4882 10.3307 13.3955 10.3035 13.3134 10.2463C13.0899 10.091 13.0282 9.77429 13.1757 9.53881C14.3689 7.6315 14.31 5.1114 13.0292 3.2676C11.7407 1.41341 9.46898 0.596817 7.37539 1.23599C7.11777 1.31466 6.84949 1.15818 6.77519 0.88746C6.70073 0.616398 6.84884 0.333247 7.10598 0.254754C9.58818 -0.502415 12.2831 0.465373 13.8107 2.66418C15.3298 4.85056 15.3998 7.83939 13.9844 10.1012C13.8913 10.25 13.7369 10.3307 13.5796 10.3307Z" fill="white"/>
<path d="M10.236 8.45014C10.1222 8.45014 10.0078 8.40808 9.91574 8.32244C9.71497 8.13583 9.69591 7.81301 9.87277 7.60154C10.331 7.05413 10.3664 6.2292 9.95692 5.63991C9.54069 5.04092 8.77461 4.83098 8.13646 5.14137C7.89273 5.25954 7.60539 5.14733 7.49362 4.89125C7.38168 4.63501 7.4878 4.33159 7.73089 4.2136C8.78576 3.7011 10.0511 4.04691 10.7388 5.03632C11.4153 6.0099 11.3566 7.37304 10.5998 8.27766C10.5038 8.39157 10.3702 8.45014 10.236 8.45014Z" fill="white"/>
<path d="M11.9746 9.42814C11.8795 9.42814 11.7832 9.39868 11.6991 9.33722C11.4792 9.17649 11.4245 8.85826 11.5768 8.62636C12.4097 7.35941 12.3889 5.6726 11.5249 4.42915C10.6539 3.17566 9.12527 2.64902 7.71974 3.11896C7.46487 3.20426 7.19223 3.05562 7.11131 2.7866C7.03038 2.51775 7.17155 2.23051 7.42659 2.14521C9.22848 1.54247 11.1896 2.21774 12.3065 3.82539C13.4147 5.42009 13.4415 7.58331 12.3732 9.20816C12.2792 9.35152 12.1282 9.42814 11.9746 9.42814Z" fill="white"/>
</g>
<defs>
<clipPath id="clip0_27_236">
<rect width="15" height="16" fill="white"/>
</clipPath>
</defs>
</svg>
