<svg width="16" height="17" viewBox="0 0 16 17" fill="none" xmlns="http://www.w3.org/2000/svg">
<g clip-path="url(#clip0_17_173)">
<path d="M3.96555 1.21101L6.27779 4.49049C6.51693 4.82951 6.44887 5.30801 6.12601 5.55893L5.39914 6.12408C5.07627 6.37518 4.62058 6.30372 4.38162 5.9647L2.0692 2.68522C1.83007 2.3462 1.89812 1.8677 2.22098 1.61678L2.94786 1.05163C3.27089 0.800532 3.72659 0.87199 3.96555 1.21101Z" fill="#D3BAAE"/>
<path d="M4.96788 6.36468C4.92756 6.36468 4.88673 6.36142 4.84607 6.35509C4.63106 6.32126 4.44155 6.20186 4.31233 6.01842L2.00009 2.73895C1.87087 2.55551 1.81712 2.33028 1.84934 2.1045C1.88138 1.87873 1.99526 1.67974 2.16996 1.54387L2.897 0.978721C3.0717 0.843041 3.28603 0.786779 3.50121 0.820428C3.71622 0.854076 3.90574 0.973656 4.03512 1.1571L6.34703 4.43676C6.47624 4.6202 6.52982 4.84542 6.49778 5.07102C6.46556 5.29679 6.35185 5.49578 6.17715 5.63165L5.45011 6.1968C5.30866 6.30679 5.14085 6.36468 4.96788 6.36468ZM3.37958 0.992108C3.24313 0.992108 3.11081 1.0377 2.99917 1.12435L2.27212 1.6895C2.13447 1.7966 2.04471 1.95345 2.01955 2.13146C1.99423 2.30929 2.03644 2.48694 2.13843 2.63149L4.45068 5.91079C4.5525 6.05533 4.70204 6.14958 4.8714 6.17618C5.04041 6.20259 5.20977 6.15827 5.3476 6.05135L6.07464 5.4862C6.2123 5.3791 6.30206 5.22225 6.32721 5.04442C6.35237 4.86659 6.31016 4.68894 6.20834 4.5444L3.89643 1.26474C3.79444 1.12019 3.64507 1.02594 3.47554 0.999525C3.4435 0.99446 3.41145 0.992108 3.37958 0.992108Z" fill="#D3BAAE"/>
<path d="M13.0663 14.1185L10.7541 10.8392C10.5149 10.5002 10.0594 10.4287 9.73655 10.6798L9.00968 11.245C8.68682 11.4961 8.61876 11.9744 8.8579 12.3134L11.1701 15.5929C11.4093 15.9319 11.8648 16.0034 12.1877 15.7523L12.9145 15.1871C13.2374 14.936 13.3053 14.4575 13.0663 14.1185Z" fill="#D3BAAE"/>
<path d="M11.7564 15.9929C11.7161 15.9929 11.6753 15.9896 11.6346 15.9833C11.4196 15.9495 11.2299 15.8299 11.1007 15.6465L8.78864 12.3673C8.65926 12.1839 8.60568 11.9585 8.63772 11.7329C8.66994 11.5071 8.78365 11.308 8.95817 11.1723L9.68522 10.6069C9.85992 10.4711 10.0741 10.415 10.2894 10.4486C10.5044 10.4825 10.6941 10.6019 10.8233 10.7851L13.1356 14.0646C13.2648 14.2481 13.3184 14.4735 13.2863 14.6991C13.2541 14.9248 13.1404 15.124 12.9659 15.2597L12.2388 15.825C12.097 15.935 11.9294 15.9929 11.7564 15.9929ZM10.1681 10.62C10.0317 10.62 9.89937 10.6656 9.7879 10.7522L9.06086 11.3175C8.92303 11.4245 8.83344 11.5815 8.80811 11.7593C8.78279 11.9371 8.82517 12.1148 8.92682 12.2593L11.2391 15.5386C11.3411 15.6834 11.4904 15.7776 11.6598 15.8042C11.829 15.8301 11.9983 15.7865 12.136 15.6796L12.863 15.1142C13.0009 15.0073 13.0904 14.8503 13.1158 14.6725C13.1411 14.4946 13.0987 14.317 12.9971 14.1724H12.9969L10.6848 10.893C10.583 10.7482 10.4335 10.6542 10.2641 10.6276C10.2321 10.6225 10.1998 10.62 10.1681 10.62Z" fill="#D3BAAE"/>
<path d="M2.80417 12.105C7.8449 19.4442 11.0441 16.1908 11.0441 16.1908L8.35297 12.3742C6.61513 13.4439 4.60421 10.7057 4.60421 10.7057C4.60421 10.7057 2.69701 7.88682 4.17866 6.45368L1.48773 2.63708C1.48773 2.63708 -2.40971 4.90041 2.80417 12.105Z" fill="#D3BAAE"/>
<path d="M9.06932 17C8.96199 17 8.85052 16.9951 8.73543 16.9845C6.8315 16.8073 4.81266 15.1837 2.73507 12.1589C0.586146 9.18935 -0.303538 6.68778 0.0909967 4.72403C0.401111 3.18035 1.40347 2.58246 1.44585 2.55785L1.51184 2.5195L4.29373 6.46526L4.23688 6.52026C2.82844 7.88267 4.65588 10.6258 4.67449 10.6534C4.69223 10.6773 6.65767 13.3122 8.30954 12.2962L8.37639 12.2552L11.1581 16.2008L11.104 16.2559C11.0718 16.2885 10.3563 17 9.06932 17ZM1.46601 2.75848C1.24462 2.91587 0.50655 3.52281 0.258458 4.76709C-0.00341591 6.07993 0.237784 8.4091 2.87272 12.0502L2.8741 12.0522C5.42152 15.7613 7.47275 16.6834 8.74491 16.8037C9.94901 16.9172 10.7191 16.3536 10.9271 16.1771L8.32901 12.4922C8.04836 12.6496 7.76305 12.716 7.48171 12.716C5.9923 12.7163 4.60574 10.8559 4.53597 10.7609C4.45534 10.6419 2.64703 7.92735 4.06425 6.44355L1.46601 2.75848Z" fill="#D3BAAE"/>
<path d="M12.773 10.0174C12.6715 10.0174 12.5688 9.98607 12.479 9.92076C12.2446 9.74999 12.1862 9.41187 12.3486 9.16548C13.2371 7.81935 13.2149 6.0271 12.2933 4.70594C11.3642 3.3741 9.73366 2.81456 8.23443 3.31386C7.96257 3.4045 7.67175 3.24656 7.58543 2.96073C7.49912 2.67508 7.6497 2.36989 7.92173 2.27925C9.84375 1.63884 11.9356 2.35632 13.127 4.06444C14.3091 5.75882 14.3377 8.05724 13.1982 9.78363C13.0979 9.93596 12.9368 10.0174 12.773 10.0174Z" fill="#D3BAAE"/>
<path d="M14.4849 10.9765C14.3874 10.9765 14.2885 10.9476 14.201 10.8868C13.9626 10.7218 13.8968 10.3853 14.0541 10.1351C15.3269 8.10862 15.264 5.43102 13.8978 3.47198C12.5235 1.5019 10.1003 0.634271 7.86711 1.3134C7.59231 1.39697 7.30615 1.23072 7.22689 0.943079C7.14747 0.655075 7.30546 0.354227 7.57974 0.270829C10.2274 -0.533664 13.102 0.494611 14.7315 2.83084C16.3518 5.15387 16.4264 8.32951 14.9167 10.7327C14.8175 10.8908 14.6528 10.9765 14.4849 10.9765Z" fill="#D3BAAE"/>
<path d="M10.9185 8.97843C10.797 8.97843 10.675 8.93374 10.5768 8.84275C10.3627 8.64447 10.3423 8.30147 10.531 8.07679C11.0198 7.49517 11.0575 6.61868 10.6208 5.99256C10.1768 5.35613 9.35962 5.13307 8.67892 5.46286C8.41894 5.58841 8.11245 5.46919 7.99322 5.19711C7.87383 4.92485 7.98702 4.60247 8.24631 4.4771C9.37151 3.93257 10.7212 4.29999 11.4548 5.35124C12.1763 6.38567 12.1138 7.83401 11.3064 8.79517C11.2041 8.91619 11.0616 8.97843 10.9185 8.97843Z" fill="#D3BAAE"/>
<path d="M12.773 10.0174C12.6715 10.0174 12.5688 9.98607 12.479 9.92076C12.2446 9.74999 12.1862 9.41187 12.3486 9.16548C13.2371 7.81935 13.2149 6.0271 12.2933 4.70594C11.3642 3.3741 9.73366 2.81456 8.23443 3.31386C7.96257 3.4045 7.67175 3.24656 7.58543 2.96073C7.49912 2.67508 7.6497 2.36989 7.92173 2.27925C9.84375 1.63884 11.9356 2.35632 13.127 4.06444C14.3091 5.75882 14.3377 8.05724 13.1982 9.78363C13.0979 9.93596 12.9368 10.0174 12.773 10.0174Z" fill="#D3BAAE"/>
</g>
<defs>
<clipPath id="clip0_17_173">
<rect width="16" height="17" fill="white"/>
</clipPath>
</defs>
</svg>
